<svg xmlns="http://www.w3.org/2000/svg" width="32" height="32"><g fill="none" fill-rule="evenodd"><path fill="#1F2D4E" d="M16 26.723c-5.912 0-10.722-4.81-10.722-10.723 0-5.912 4.81-10.723 10.722-10.723 5.913 0 10.723 4.81 10.723 10.723 0 5.912-4.81 10.723-10.723 10.723M16 0C7.177 0 0 7.178 0 16s7.177 16 16 16c8.822 0 16-7.178 16-16S24.822 0 16 0"/><path fill="#00C718" d="M15.868 26.956c2.432 0 4.675-.846 6.468-2.264l-3.712-3.816a5.28 5.28 0 0 1-2.756.78c-3.01 0-5.447-2.52-5.447-5.628 0-3.109 2.438-5.628 5.447-5.628 1.007 0 1.947.288 2.756.78l3.712-3.816A10.392 10.392 0 0 0 15.868 5.1c-5.862 0-10.632 4.902-10.632 10.928 0 6.026 4.77 10.928 10.632 10.928"/></g></svg>